<svg width="15" height="13" viewBox="0 0 15 13" fill="none" xmlns="http://www.w3.org/2000/svg">
<path d="M0.359375 12.0105V4.671C0.359375 2.4012 2.14625 0.554199 4.34218 0.554199H10.8874C13.0838 0.554199 14.8711 2.4012 14.8711 4.671V5.93695C14.8711 8.20676 13.0842 10.0538 10.8883 10.0538H4.43451L0.359375 12.0105ZM4.34218 1.47201C2.63567 1.47201 1.24731 2.90708 1.24731 4.671V10.572L4.23884 9.13545H10.8883C12.5948 9.13545 13.9832 7.70038 13.9832 5.93646V4.67051C13.9832 2.90659 12.5943 1.47152 10.8874 1.47152H4.34218V1.47201ZM4.63497 4.60128C5.10142 4.60128 5.47937 4.99194 5.47937 5.47409C5.47937 5.95624 5.10142 6.3469 4.63497 6.3469C4.16851 6.3469 3.79056 5.95624 3.79056 5.47409C3.79056 4.99194 4.16851 4.60128 4.63497 4.60128ZM10.5951 4.60128C11.0615 4.60128 11.4395 4.99194 11.4395 5.47409C11.4395 5.95624 11.0615 6.3469 10.5951 6.3469C10.1286 6.3469 9.75065 5.95624 9.75065 5.47409C9.75065 4.99194 10.1286 4.60128 10.5951 4.60128ZM7.61453 4.60128C8.08099 4.60128 8.45893 4.99194 8.45893 5.47409C8.45893 5.95624 8.08099 6.3469 7.61453 6.3469C7.14808 6.3469 6.77013 5.95624 6.77013 5.47409C6.77013 4.99194 7.14808 4.60128 7.61453 4.60128Z" fill="black" fill-opacity="0.6"/>
</svg>
