<svg width="12" height="13" viewBox="0 0 12 13" fill="none" xmlns="http://www.w3.org/2000/svg">
<path d="M8.53781 3.14866L8.54849 3.23345L8.42556 3.25976L8.40919 3.44038H8.55644L8.75232 3.42088L8.85344 3.29663L8.74596 3.25342L8.68711 3.18342L8.59871 3.03545L8.55644 2.82617L8.39033 2.86117L8.34375 2.93492V3.01807L8.42374 3.07467L8.53781 3.14866Z" fill="black" fill-opacity="0.6"/>
<path d="M8.39952 3.21852L8.40846 3.10507L8.31005 3.06152L8.1724 3.09424L8.07031 3.2623V3.37127H8.18938L8.39952 3.21852Z" fill="black" fill-opacity="0.6"/>
<path d="M5.59094 3.69942L5.56066 3.77945H5.41406V3.85712H5.44893C5.44893 3.85712 5.451 3.87359 5.45398 3.89525L5.54391 3.88748L5.60011 3.8517L5.6148 3.77945L5.68752 3.77309L5.7162 3.71236L5.64944 3.69824L5.59094 3.69942Z" fill="black" fill-opacity="0.6"/>
<path d="M5.21275 3.83954L5.20703 3.91588L5.3129 3.90666L5.32388 3.83008L5.26031 3.77832L5.21275 3.83954Z" fill="black" fill-opacity="0.6"/>
<path d="M11.5324 6.25982C11.5308 6.09282 11.5227 5.92699 11.5074 5.76375C11.4563 5.21954 11.3304 4.69787 11.1418 4.20886C11.1277 4.17245 11.1148 4.13557 11.0998 4.09964C10.8485 3.4859 10.4956 2.92712 10.0636 2.44492C10.0352 2.41344 10.0063 2.38244 9.97745 2.3519C9.89587 2.26429 9.81202 2.1788 9.72522 2.09683C8.7431 1.17258 7.43875 0.608398 6.00897 0.608398C4.56715 0.608398 3.25349 1.18268 2.26864 2.12102C2.03913 2.33969 1.82826 2.57833 1.63692 2.83387C0.915217 3.79876 0.484375 5.00744 0.484375 6.31877C0.484375 9.46779 2.96285 12.0294 6.0092 12.0294C8.15205 12.0294 10.0124 10.761 10.9282 8.91301C11.1241 8.51794 11.2766 8.0968 11.3793 7.65547C11.4054 7.54343 11.4279 7.43092 11.4475 7.31701C11.5031 6.99264 11.5336 6.65911 11.5336 6.31877C11.5338 6.29904 11.5327 6.27955 11.5324 6.25982ZM10.4926 3.9775L10.5246 3.94039C10.5667 4.02471 10.606 4.11044 10.6435 4.19735L10.5912 4.19523L10.4926 4.20933V3.9775ZM9.69431 2.98114L9.69522 2.72607C9.78203 2.82119 9.86565 2.91914 9.94564 3.0206L9.84611 3.17374L9.49821 3.17046L9.47639 3.09553L9.69431 2.98114ZM3.02989 2.34721V2.33758H3.14055L3.1501 2.29835H3.33121V2.38009L3.27917 2.45196H3.02966L3.02989 2.34721ZM3.20668 2.60205C3.20668 2.60205 3.31735 2.58255 3.32689 2.58255C3.33643 2.58255 3.32689 2.69671 3.32689 2.69671L3.07738 2.71291L3.02989 2.65419L3.20668 2.60205ZM10.8446 4.86886H10.4403L10.194 4.67932L9.93473 4.70539V4.86886H9.8527L9.76408 4.80357L9.31505 4.68589V4.38525L8.74605 4.43105L8.56971 4.52899H8.34384L8.23318 4.51749L7.9589 4.67485V4.97104L7.3983 5.38912L7.44489 5.56763H7.55851L7.52874 5.73768L7.44875 5.76798L7.44443 6.21237L7.92891 6.78266H8.13978L8.15251 6.74789H8.53154L8.64084 6.64337H8.85581L8.97374 6.76551L9.29415 6.7998L9.25165 7.2402L9.60728 7.88917L9.42004 8.25911L9.43276 8.43338L9.58024 8.58535V9.00437L9.77385 9.27355V9.62164H9.94109C9.01033 10.8028 7.59373 11.5594 6.00875 11.5594C3.21327 11.5596 0.93885 9.20848 0.93885 6.31877C0.93885 5.59135 1.08337 4.89799 1.34356 4.26781V4.10433L1.5249 3.87674C1.58784 3.7539 1.65533 3.63411 1.72736 3.51737L1.73554 3.6125L1.52512 3.87674C1.45991 4.00404 1.39901 4.13416 1.34379 4.26781V4.56611L1.55444 4.67086V5.08542L1.75645 5.44173L1.92074 5.46781L1.94188 5.34567L1.74804 5.03657L1.71009 4.73616H1.82371L1.87166 5.04526L2.15184 5.46781L2.07958 5.60427L2.25774 5.88589L2.70017 5.9991V5.92511L2.87719 5.95119L2.86037 6.08178L2.99944 6.10809L3.21418 6.16868L3.51754 6.52593L3.90498 6.55623L3.94293 6.88295L3.67774 7.07461L3.66525 7.36633L3.6273 7.54484L4.01087 8.04114L4.04019 8.21119C4.04019 8.21119 4.17926 8.25018 4.1963 8.25018C4.21312 8.25018 4.50807 8.48107 4.50807 8.48107V9.37807L4.61328 9.4086L4.5417 9.82246L4.71872 10.0665L4.686 10.4766L4.91982 10.9015L5.22001 11.1725L5.52178 11.1782L5.55132 11.0779L5.32953 10.8848L5.34226 10.789L5.38203 10.6715L5.39043 10.5518L5.24046 10.5471L5.16479 10.4489L5.28931 10.3251L5.30613 10.2316L5.16706 10.1905L5.17524 10.1036L5.37339 10.0726L5.67471 9.92299L5.77583 9.73133L6.09192 9.31324L6.02011 8.98629L6.11714 8.81224L6.40778 8.8214L6.60343 8.66122L6.6666 8.03033L6.88361 7.74542L6.92156 7.56245L6.72364 7.49692L6.59297 7.27543L6.14645 7.27073L5.79242 7.13122L5.7756 6.87027L5.65744 6.65676L5.33726 6.65183L5.15229 6.35165L4.988 6.26874L4.97959 6.36034L4.68054 6.37867L4.57101 6.22106L4.25902 6.15553L4.00201 6.46252L3.59753 6.39158L3.56822 5.92042L3.27303 5.86827L3.39143 5.63715L3.35757 5.50445L2.96967 5.77244L2.72562 5.74167L2.63859 5.54461L2.69176 5.34144L2.82629 5.08519L3.13601 4.92312L3.7341 4.92289L3.73251 5.11149L3.94748 5.21484L3.93043 4.89259L4.08541 4.73146L4.39809 4.51913L4.41945 4.36975L4.73122 4.03434L5.06276 3.84456L5.03344 3.81966L5.25795 3.60122L5.34021 3.62377L5.37794 3.67263L5.46315 3.57492L5.48406 3.56529L5.39066 3.55166L5.2959 3.51902V3.42506L5.34612 3.38255H5.45679L5.50746 3.40557L5.55132 3.49717L5.60495 3.48872V3.48073L5.6204 3.48613L5.77583 3.46147L5.79787 3.38302L5.88649 3.40604V3.49107L5.80423 3.54955H5.80446L5.8165 3.6428L6.09805 3.73252C6.09805 3.73252 6.09828 3.7337 6.09873 3.73604L6.1635 3.73041L6.16781 3.60428L5.94467 3.49929L5.93194 3.43869L6.11714 3.37339L6.12532 3.19019L5.93171 3.06828L5.91899 2.75942L5.65357 2.89424H5.55677L5.58222 2.65913L5.22091 2.57105L5.07139 2.68778V3.04386L4.80257 3.13194L4.69486 3.364L4.57806 3.38349V3.0866L4.32537 3.05043L4.19903 2.96541L4.14813 2.77304L4.6001 2.49964L4.8212 2.43012L4.84347 2.58373L4.96664 2.57715L4.97618 2.49988L5.10502 2.48085L5.1073 2.45384L5.05185 2.43012L5.03912 2.34838L5.19751 2.33452L5.29318 2.23165L5.2984 2.22413L5.29954 2.2246L5.32863 2.1936L5.66153 2.15014L5.80878 2.27933L5.4227 2.49189L5.91399 2.61168L5.97762 2.44186H6.19236L6.26825 2.29389L6.11646 2.25466V2.06747L5.6404 1.8495L5.31181 1.88872L5.12638 1.98902L5.13911 2.23282L4.94528 2.20229L4.91551 2.06747L5.10116 1.89319L4.76417 1.8758L4.66736 1.9061L4.62532 2.02354L4.75167 2.04562L4.72645 2.17621L4.51171 2.18937L4.47808 2.27627L4.16653 2.2852C4.16653 2.2852 4.1579 2.10246 4.1454 2.10246C4.1329 2.10246 4.38968 2.098 4.38968 2.098L4.57533 1.91057L4.47398 1.85819L4.33923 1.99348L4.11563 1.98033L3.98088 1.78866H3.69433L3.39529 2.01955H3.66934L3.69433 2.10246L3.62321 2.17081L3.92657 2.1795L3.97293 2.29271L3.63139 2.27956L3.6148 2.19242L3.40006 2.14451L3.28621 2.07921L3.03057 2.08132C3.86749 1.45114 4.89665 1.07816 6.00897 1.07816C7.29105 1.07816 8.46246 1.57352 9.35618 2.38737L9.29597 2.4987L9.06214 2.59336L8.96352 2.70399L8.98624 2.83294L9.1069 2.85032L9.17962 3.03822L9.38777 2.95155L9.42208 3.20287H9.35936L9.18848 3.1768L8.99897 3.20968L8.81559 3.47744L8.55335 3.51996L8.5154 3.75202L8.62607 3.77903L8.59403 3.92817L8.33361 3.87415L8.09479 3.92817L8.04411 4.06558L8.08547 4.35401L8.22568 4.42189L8.46087 4.42048L8.61971 4.40568L8.66811 4.27509L8.91625 3.9418L9.07964 3.97633L9.24052 3.826L9.27052 3.94344L9.66636 4.21942L9.61796 4.2866L9.43958 4.27674L9.50821 4.37726L9.61796 4.40216L9.74658 4.34673L9.74385 4.18654L9.80089 4.15695L9.75499 4.10668L9.49094 3.95448L9.4214 3.75225H9.64091L9.71113 3.82412L9.90019 3.99253L9.90814 4.19617L10.104 4.41179L10.177 4.11631L10.3126 4.03974L10.3381 4.28143L10.4706 4.43176L10.7348 4.42706C10.786 4.56305 10.8319 4.7014 10.8721 4.84256L10.8446 4.86886ZM3.49777 3.20287L3.63048 3.13757L3.75046 3.16717L3.7091 3.3337L3.57958 3.37621L3.49777 3.20287ZM4.20198 3.59488V3.70269H3.89885L3.78523 3.67004L3.81363 3.59488L3.95929 3.53264H4.15835V3.59488H4.20198ZM4.34151 3.7452V3.84973L4.26561 3.90022L4.17108 3.91831C4.17108 3.91831 4.17108 3.76165 4.17108 3.7452H4.34151ZM4.25606 3.70269V3.57844L4.36037 3.67662L4.25606 3.70269ZM4.30356 3.95401V4.05571L4.23107 4.13088H4.06996L4.09518 4.01672L4.1713 4.00991L4.18698 3.97069L4.30356 3.95401ZM3.90226 3.7452H4.06973L3.85499 4.05548L3.76637 4.00639L3.78545 3.8758L3.90226 3.7452ZM4.58806 3.91831V4.01978H4.42695L4.38286 3.95401V3.85959H4.39559L4.58806 3.91831ZM4.43922 3.77879L4.48512 3.729L4.56261 3.77879L4.50057 3.83164L4.43922 3.77879ZM10.9268 5.13334L10.9428 5.11408C10.9493 5.14367 10.9564 5.17327 10.9628 5.20333L10.9268 5.13334Z" fill="black" fill-opacity="0.6"/>
<path d="M1.34375 4.10503V4.26885C1.39922 4.13516 1.46039 4.00476 1.5259 3.87695L1.34375 4.10503Z" fill="black" fill-opacity="0.6"/>
</svg>
