<svg width="24" height="24" viewBox="0 0 24 24" fill="none" xmlns="http://www.w3.org/2000/svg">
<path d="M12.0006 21.9421C10.0343 21.9421 8.11207 21.359 6.47712 20.2666C4.84217 19.1741 3.56787 17.6214 2.81539 15.8047C2.0629 13.9881 1.86602 11.9891 2.24963 10.0605C2.63325 8.13196 3.58013 6.36047 4.97054 4.97005C6.36096 3.57964 8.13245 2.63276 10.061 2.24914C11.9896 1.86553 13.9886 2.06241 15.8052 2.8149C17.6219 3.56739 19.1746 4.84168 20.2671 6.47663C21.3595 8.11158 21.9426 10.0338 21.9426 12.0001C21.9397 14.636 20.8913 17.1631 19.0274 19.027C17.1636 20.8908 14.6365 21.9392 12.0006 21.9421ZM12.0006 3.05811C10.232 3.05811 8.50319 3.58255 7.03269 4.56511C5.56219 5.54767 4.41607 6.94422 3.73927 8.57816C3.06247 10.2121 2.88539 12.01 3.23042 13.7446C3.57545 15.4792 4.42709 17.0725 5.67765 18.3231C6.92821 19.5736 8.52152 20.4253 10.2561 20.7703C11.9907 21.1153 13.7886 20.9382 15.4226 20.2614C17.0565 19.5846 18.453 18.4385 19.4356 16.968C20.4182 15.4975 20.9426 13.7687 20.9426 12.0001C20.9405 9.62919 19.9977 7.35599 18.3212 5.6795C16.6447 4.00301 14.3715 3.06023 12.0006 3.05811Z" fill="#606770"/>
<path d="M16.6928 13.7441C16.323 14.6877 15.6773 15.498 14.8401 16.0692C14.0028 16.6403 13.0128 16.9458 11.9993 16.9458C10.9857 16.9458 9.99576 16.6403 9.15849 16.0692C8.32122 15.498 7.67557 14.6877 7.30578 13.7441C7.05678 13.1541 6.19478 13.6631 6.44278 14.2491C6.90199 15.3439 7.6744 16.2787 8.66305 16.9362C9.65169 17.5936 10.8125 17.9443 11.9998 17.9443C13.187 17.9443 14.3479 17.5936 15.3365 16.9362C16.3251 16.2787 17.0976 15.3439 17.5568 14.2491C17.8038 13.6631 16.9428 13.1491 16.6928 13.7441Z" fill="#606770"/>
<path d="M9 10.2612C9.69036 10.2612 10.25 9.70159 10.25 9.01123C10.25 8.32087 9.69036 7.76123 9 7.76123C8.30964 7.76123 7.75 8.32087 7.75 9.01123C7.75 9.70159 8.30964 10.2612 9 10.2612Z" fill="#606770"/>
<path d="M15 10.2612C15.6904 10.2612 16.25 9.70159 16.25 9.01123C16.25 8.32087 15.6904 7.76123 15 7.76123C14.3096 7.76123 13.75 8.32087 13.75 9.01123C13.75 9.70159 14.3096 10.2612 15 10.2612Z" fill="#606770"/>
</svg>
