<svg width="15" height="16" viewBox="0 0 15 16" fill="none" xmlns="http://www.w3.org/2000/svg">
<path d="M7.6043 5.54395C6.75928 5.54395 6.07422 6.32553 6.07422 7.28971C6.07422 8.25385 6.75925 9.03548 7.6043 9.03548C8.44932 9.03548 9.13439 8.25389 9.13439 7.28971C9.13439 6.32553 8.44936 5.54395 7.6043 5.54395ZM7.6043 8.20412C7.16166 8.20412 6.80283 7.79471 6.80283 7.28967C6.80283 6.78463 7.16166 6.37522 7.6043 6.37522C8.04695 6.37522 8.40578 6.78463 8.40578 7.28967C8.40578 7.79471 8.04695 8.20412 7.6043 8.20412Z" fill="black" fill-opacity="0.6"/>
<path d="M13.7061 1.55402L3.76065 0.265525C3.37466 0.202912 2.98358 0.331479 2.68597 0.618846C2.3884 0.882107 2.19765 1.27234 2.15773 1.69954L1.9756 3.40373H1.41089C0.609412 3.40373 0.00830476 4.21423 0.00830476 5.12868V13.6288C-0.0118821 14.5008 0.591317 15.2264 1.35563 15.2495C1.37404 15.25 1.39248 15.2501 1.41089 15.2499H11.411C12.2125 15.2499 12.9411 14.5433 12.9411 13.6288V13.2963C13.1896 13.2415 13.4253 13.1283 13.6333 12.9638C13.9284 12.6803 14.1174 12.2788 14.1615 11.8415L14.9994 3.40373C15.0848 2.48717 14.5084 1.66266 13.7061 1.55402ZM12.2125 13.6288C12.2125 14.086 11.8118 14.4185 11.411 14.4185H1.41089C1.04889 14.4307 0.746816 14.1057 0.736182 13.6926C0.735624 13.6714 0.735868 13.6501 0.736914 13.6288V12.0909L3.56028 9.72166C3.89945 9.42455 4.37717 9.45096 4.68963 9.784L6.67509 11.7791C6.9766 12.068 7.35614 12.2294 7.7498 12.2364C8.05759 12.2407 8.36032 12.1471 8.62415 11.9662L12.2125 9.59695V13.6288H12.2125ZM12.2125 8.62017L8.24157 11.2596C7.90059 11.4901 7.469 11.4483 7.16686 11.1557L5.1632 9.13973C4.58894 8.57673 3.7496 8.5422 3.14131 9.05659L0.736914 11.0517V5.12868C0.736914 4.67146 1.01015 4.23504 1.41089 4.23504H11.411C11.8392 4.25529 12.1849 4.64083 12.2125 5.12868V8.62017ZM14.2715 3.29151C14.2713 3.29425 14.2711 3.29704 14.2708 3.29978L13.4147 11.7376C13.4161 11.9564 13.3287 12.1636 13.1779 12.2987C13.105 12.3818 12.9411 12.4234 12.9411 12.465V5.12868C12.9123 4.18189 12.2411 3.42517 11.411 3.40373H2.70417L2.86811 1.78267C2.90367 1.57276 2.99986 1.38253 3.14134 1.24231C3.3011 1.11629 3.49425 1.05753 3.68782 1.07603L13.6151 2.38533C14.0156 2.42873 14.3096 2.83444 14.2715 3.29151Z" fill="black" fill-opacity="0.6"/>
</svg>
