<svg width="15" height="15" viewBox="0 0 15 15" fill="none" xmlns="http://www.w3.org/2000/svg">
<path d="M9.98445 5.73529L9.57702 5.66294C9.56718 5.72612 9.57035 5.79082 9.58629 5.85256C9.60223 5.91429 9.63057 5.97158 9.66934 6.02045C9.70811 6.06932 9.75638 6.10858 9.8108 6.13553C9.86521 6.16247 9.92447 6.17644 9.98445 6.17647V5.73529ZM0.893685 5.73529V5.29412C0.784094 5.29412 0.67899 5.3406 0.601497 5.42334C0.524004 5.50607 0.480469 5.61829 0.480469 5.73529H0.893685ZM2.54655 15H11.9348V14.1176H2.54655V15ZM12.9266 5.29412H9.98445V6.17647H12.9266V5.29412ZM10.3919 5.80765L11.058 1.54147L10.2431 1.39588L9.57702 5.66294L10.3919 5.80765ZM9.8357 3.4557e-08H9.65967V0.882353H9.8357V3.4557e-08ZM7.25226 1.37559L5.17296 4.70471L5.86055 5.19441L7.93903 1.86441L7.25226 1.37559ZM4.14157 5.29412H0.893685V6.17647H4.14157V5.29412ZM0.480469 5.73529V12.7941H1.3069V5.73529H0.480469ZM13.9613 13.2265L14.953 7.93235L14.1431 7.75941L13.1513 13.0535L13.9613 13.2265ZM5.17296 4.70471C5.05976 4.886 4.9064 5.03465 4.72648 5.13748C4.54656 5.2403 4.34564 5.2941 4.14157 5.29412V6.17647C4.48167 6.17648 4.81651 6.08684 5.11638 5.91553C5.41624 5.74421 5.67186 5.49651 5.86055 5.19441L5.17296 4.70471ZM11.058 1.54147C11.0876 1.35188 11.0782 1.15768 11.0305 0.972356C10.9827 0.787035 10.8977 0.615046 10.7814 0.468347C10.6651 0.321647 10.5202 0.203759 10.3569 0.122879C10.1936 0.0419987 10.0157 6.71666e-05 9.8357 3.4557e-08V0.882353C9.89575 0.882254 9.9551 0.896131 10.0096 0.923018C10.0641 0.949905 10.1125 0.989156 10.1514 1.03804C10.1902 1.08692 10.2186 1.14425 10.2346 1.20606C10.2506 1.26786 10.2538 1.33263 10.244 1.39588L11.058 1.54147ZM12.9266 6.17647C13.11 6.17646 13.2911 6.21989 13.4569 6.30365C13.6226 6.3874 13.7689 6.50939 13.8852 6.6608C14.0015 6.81222 14.0849 6.98931 14.1293 7.17928C14.1738 7.36926 14.179 7.5674 14.1431 7.75941L14.953 7.93235C15.0129 7.61245 15.0047 7.28235 14.9307 6.96583C14.8567 6.64931 14.7179 6.35425 14.5242 6.10191C14.3306 5.84957 14.0869 5.64624 13.8108 5.50655C13.5346 5.36687 13.2329 5.29431 12.9274 5.29412L12.9266 6.17647ZM11.9348 15C12.4126 15.0001 12.8756 14.8234 13.2451 14.5001C13.6145 14.1767 13.8676 13.7266 13.9613 13.2265L13.1513 13.0535C13.0951 13.3538 12.9432 13.6239 12.7214 13.8179C12.4996 14.0119 12.2216 14.1179 11.9348 14.1176V15ZM9.65884 3.4557e-08C9.1825 -7.60381e-05 8.71352 0.125447 8.29354 0.36542C7.87357 0.605394 7.5156 0.95239 7.25144 1.37559L7.93903 1.86441C8.12772 1.56231 8.38334 1.31461 8.6832 1.14329C8.98307 0.971979 9.31791 0.882347 9.65801 0.882353L9.65884 3.4557e-08ZM2.54655 14.1176C2.21778 14.1176 1.90247 13.9782 1.66999 13.73C1.43751 13.4818 1.3069 13.1451 1.3069 12.7941H0.480469C0.480469 13.0838 0.53391 13.3706 0.63774 13.6383C0.74157 13.9059 0.893757 14.1491 1.08561 14.3539C1.27746 14.5587 1.50523 14.7212 1.7559 14.8321C2.00657 14.9429 2.27523 15 2.54655 15V14.1176Z" fill="black" fill-opacity="0.6"/>
<path d="M4.19922 5.73438V14.5579V5.73438Z" fill="black" fill-opacity="0.6"/>
<path d="M4.19922 5.73438V14.5579" stroke="black" stroke-opacity="0.6"/>
</svg>
