<svg width="130" height="55" viewBox="0 0 130 55" fill="none" xmlns="http://www.w3.org/2000/svg">
<path d="M36.7099 41.11C36.3899 41.11 36.1499 41.0591 35.9899 40.9573C35.8299 40.8555 35.7863 40.6882 35.859 40.4555L41.5099 23.11C41.1463 23.4737 40.7608 23.8227 40.3535 24.1573C39.9463 24.4918 39.5172 24.8264 39.0663 25.1609C38.6299 25.4809 38.1644 25.8155 37.6699 26.1646C37.3644 26.3682 37.1099 26.4337 36.9063 26.3609C36.7026 26.2882 36.5208 26.1209 36.3608 25.8591C36.2154 25.6264 36.1572 25.4082 36.1863 25.2046C36.2154 24.9864 36.3681 24.7973 36.6444 24.6373C37.5026 24.0991 38.2954 23.5537 39.0226 23.0009C39.7644 22.4337 40.4408 21.8446 41.0517 21.2337C41.6626 20.6082 42.1935 19.9609 42.6444 19.2918C42.819 19.0446 42.979 18.8773 43.1244 18.79C43.2699 18.7027 43.5026 18.6591 43.8226 18.6591C44.1572 18.6591 44.3972 18.71 44.5426 18.8118C44.7026 18.9137 44.739 19.0809 44.6517 19.3137L43.4299 23.1318C43.9972 22.4337 44.5863 21.8082 45.1972 21.2555C45.8226 20.7027 46.4554 20.2373 47.0954 19.8591C47.7499 19.4664 48.3972 19.1682 49.0372 18.9646C49.6917 18.7609 50.3317 18.6591 50.9572 18.6591C51.7863 18.6591 52.5135 18.8046 53.139 19.0955C53.779 19.3718 54.2735 19.8082 54.6226 20.4046C54.9717 21.0009 55.1463 21.75 55.1463 22.6518C55.1463 23.35 55.0154 24.0482 54.7535 24.7464C54.4917 25.4446 54.1063 26.1137 53.5972 26.7537C53.1026 27.3937 52.499 27.9973 51.7863 28.5646C51.0735 29.1318 50.259 29.6482 49.3426 30.1137C48.4263 30.5646 47.4299 30.95 46.3535 31.27C46.4408 31.59 46.5281 31.9027 46.6154 32.2082C46.7172 32.4991 46.8117 32.7973 46.899 33.1027C47.0008 33.3937 47.1026 33.6991 47.2044 34.0191C47.3208 34.3391 47.4444 34.6955 47.5754 35.0882C47.8081 35.8155 48.0335 36.4409 48.2517 36.9646C48.4844 37.4737 48.7099 37.9027 48.9281 38.2518C49.1463 38.5864 49.3644 38.8482 49.5826 39.0373C49.8008 39.2264 50.019 39.3573 50.2372 39.43C50.4699 39.5027 50.7026 39.5391 50.9354 39.5391C51.2117 39.5391 51.3935 39.6264 51.4808 39.8009C51.5681 39.9609 51.5826 40.15 51.5244 40.3682C51.4808 40.5718 51.3644 40.7537 51.1754 40.9137C51.0008 41.0882 50.7754 41.1755 50.499 41.1755C49.9317 41.1755 49.4226 41.0591 48.9717 40.8264C48.5354 40.6082 48.1354 40.2737 47.7717 39.8227C47.4226 39.3573 47.0881 38.7827 46.7681 38.0991C46.4481 37.4155 46.1281 36.6155 45.8081 35.6991C45.6626 35.2627 45.5317 34.87 45.4154 34.5209C45.3135 34.1718 45.2117 33.8518 45.1099 33.5609C45.0081 33.2555 44.9063 32.9427 44.8044 32.6227C44.7172 32.3027 44.6154 31.9537 44.499 31.5755C44.2081 31.5464 43.939 31.4809 43.6917 31.3791C43.4444 31.2627 43.2481 31.11 43.1026 30.9209C42.9717 30.7318 42.9063 30.5137 42.9063 30.2664C42.9063 29.9318 43.0372 29.6555 43.299 29.4373C43.5608 29.2191 43.8954 29.11 44.3026 29.11C44.6517 29.11 44.9572 29.1827 45.219 29.3282C45.4954 29.4737 45.7135 29.6409 45.8735 29.83C46.6881 29.5682 47.459 29.2482 48.1863 28.87C48.9281 28.4773 49.5972 28.0482 50.1935 27.5827C50.8044 27.1027 51.3281 26.6009 51.7644 26.0773C52.2154 25.5391 52.5572 24.9864 52.7899 24.4191C53.0372 23.8518 53.1608 23.2773 53.1608 22.6955C53.1608 22.1573 53.059 21.7282 52.8554 21.4082C52.6663 21.0882 52.3972 20.8555 52.0481 20.71C51.699 20.5646 51.2917 20.4918 50.8263 20.4918C50.1281 20.4918 49.4081 20.6518 48.6663 20.9718C47.9244 21.2773 47.1899 21.7137 46.4626 22.2809C45.7499 22.8482 45.0663 23.5318 44.4117 24.3318C43.7572 25.1173 43.1535 25.99 42.6008 26.95C42.0626 27.91 41.5972 28.9282 41.2044 30.0046L37.8226 40.4991C37.7644 40.7027 37.6481 40.8555 37.4735 40.9573C37.299 41.0591 37.0444 41.11 36.7099 41.11ZM50.5431 41.1755C50.2668 41.1755 50.085 41.0882 49.9977 40.9137C49.8959 40.7537 49.874 40.5718 49.9322 40.3682C49.9759 40.15 50.085 39.9609 50.2595 39.8009C50.434 39.6264 50.6595 39.5391 50.9359 39.5391C51.5322 39.5391 52.245 39.3718 53.074 39.0373C53.8886 38.7027 54.805 38.2009 55.8231 37.5318C55.9977 37.4155 56.1577 37.3937 56.3031 37.4664C56.4486 37.5391 56.5577 37.6627 56.6304 37.8373C56.7177 38.0118 56.7468 38.1937 56.7177 38.3827C56.6886 38.5718 56.594 38.7246 56.434 38.8409C55.5759 39.4082 54.7831 39.8664 54.0559 40.2155C53.314 40.55 52.6522 40.79 52.0704 40.9355C51.474 41.0955 50.965 41.1755 50.5431 41.1755ZM55.8231 37.6846C56.085 37.5246 56.3395 37.3573 56.5868 37.1827C56.834 37.0082 57.0813 36.8337 57.3286 36.6591C57.9831 36.1791 58.5722 35.6846 59.0959 35.1755C59.6195 34.6664 60.034 34.1646 60.3395 33.67C60.6595 33.1755 60.8195 32.7173 60.8195 32.2955C60.8195 31.9609 60.7468 31.6991 60.6013 31.51C60.4559 31.3209 60.2377 31.2264 59.9468 31.2264C59.7431 31.2264 59.5904 31.1391 59.4886 30.9646C59.4013 30.79 59.3722 30.5864 59.4013 30.3537C59.4304 30.1209 59.525 29.9173 59.685 29.7427C59.8595 29.5682 60.0995 29.4809 60.405 29.4809C60.8413 29.4809 61.2413 29.5755 61.605 29.7646C61.9686 29.9391 62.2522 30.2009 62.4559 30.55C62.674 30.8846 62.7831 31.2918 62.7831 31.7718C62.7831 32.4264 62.5722 33.1173 62.1504 33.8446C61.7431 34.5573 61.1977 35.27 60.514 35.9827C59.8304 36.6809 59.0668 37.3355 58.2231 37.9464C57.9468 38.1355 57.6631 38.3318 57.3722 38.5355C57.0813 38.7246 56.7904 38.9064 56.4995 39.0809L55.8231 37.6846ZM58.7105 41.1755C58.3032 41.1755 57.925 41.0955 57.5759 40.9355C57.2123 40.7755 56.885 40.55 56.5941 40.2591C56.3032 39.9682 56.0632 39.6264 55.8741 39.2337C55.6705 38.8409 55.5177 38.4118 55.4159 37.9464C55.2996 37.4809 55.2414 36.9864 55.2414 36.4627C55.2414 35.7791 55.3359 35.0373 55.525 34.2373C55.7141 33.4227 56.0196 32.6591 56.4414 31.9464C56.8486 31.2191 57.3796 30.63 58.0341 30.1791C58.6886 29.7137 59.4814 29.4809 60.4123 29.4809C60.6159 29.4809 60.7686 29.5682 60.8705 29.7427C60.9577 29.9173 60.9868 30.1209 60.9577 30.3537C60.9141 30.5864 60.8123 30.79 60.6523 30.9646C60.4777 31.1391 60.2377 31.2264 59.9323 31.2264C59.5686 31.2264 59.2414 31.35 58.9505 31.5973C58.645 31.83 58.3832 32.1427 58.165 32.5355C57.9468 32.9282 57.765 33.3573 57.6196 33.8227C57.4741 34.2882 57.365 34.7537 57.2923 35.2191C57.2196 35.67 57.1832 36.0773 57.1832 36.4409C57.1832 36.8482 57.2268 37.2337 57.3141 37.5973C57.4014 37.9609 57.525 38.2882 57.685 38.5791C57.845 38.8555 58.0414 39.0809 58.2741 39.2555C58.5068 39.4155 58.7686 39.4955 59.0596 39.4955C59.4959 39.4955 59.9468 39.3573 60.4123 39.0809C60.8632 38.79 61.3505 38.3827 61.8741 37.8591C62.3832 37.3209 62.9286 36.6882 63.5105 35.9609C64.0923 35.2191 64.7177 34.39 65.3868 33.4737C66.0123 32.63 66.5723 31.9464 67.0668 31.4227C67.5614 30.8991 68.0123 30.4991 68.4196 30.2227C68.8268 29.9318 69.205 29.7355 69.5541 29.6337C69.9032 29.5318 70.2523 29.4809 70.6014 29.4809C70.7323 29.4809 70.8196 29.5682 70.8632 29.7427C70.9214 29.9027 70.9214 30.0918 70.8632 30.31C70.8196 30.5137 70.725 30.7027 70.5796 30.8773C70.4486 31.0373 70.2596 31.1173 70.0123 31.1173C69.8377 31.1173 69.6268 31.2118 69.3796 31.4009C69.1323 31.5755 68.8486 31.8373 68.5286 32.1864C68.2232 32.5209 67.8741 32.9355 67.4814 33.43C67.1032 33.91 66.6959 34.4482 66.2596 35.0446C65.5032 36.0773 64.805 36.9791 64.165 37.75C63.5396 38.5209 62.9432 39.1609 62.3759 39.67C61.8086 40.1791 61.2341 40.5573 60.6523 40.8046C60.0559 41.0518 59.4086 41.1755 58.7105 41.1755ZM74.8777 41.1755C74.2377 41.1755 73.7577 41.0518 73.4377 40.8046C73.1323 40.5718 72.9432 40.2737 72.8705 39.91C72.7977 39.5318 72.7977 39.1391 72.8705 38.7318C72.9432 38.31 73.0377 37.9246 73.1541 37.5755L74.6377 33.2991C74.7686 32.9209 74.8486 32.5791 74.8777 32.2737C74.9214 31.9537 74.8705 31.6991 74.725 31.51C74.5941 31.3209 74.325 31.2264 73.9177 31.2264C73.4377 31.2264 72.8996 31.4373 72.3032 31.8591C71.7214 32.2809 71.1177 32.87 70.4923 33.6264C69.8814 34.3827 69.2705 35.2846 68.6596 36.3318C68.0486 37.3646 67.4814 38.5064 66.9577 39.7573L66.6959 40.5646C66.6377 40.7537 66.5286 40.8918 66.3686 40.9791C66.2232 41.0809 65.9832 41.1318 65.6486 41.1318C65.4159 41.1318 65.1977 41.0809 64.9941 40.9791C64.805 40.8773 64.7541 40.6882 64.8414 40.4118L67.6777 31.6409C67.7214 31.4955 67.7141 31.3718 67.6559 31.27C67.6123 31.1682 67.5032 31.1173 67.3286 31.1173C67.1541 31.1173 67.0305 31.0373 66.9577 30.8773C66.8996 30.7027 66.8923 30.5137 66.9359 30.31C66.9796 30.0918 67.0814 29.9027 67.2414 29.7427C67.4014 29.5682 67.6123 29.4809 67.8741 29.4809C68.4123 29.4809 68.805 29.5827 69.0523 29.7864C69.3141 29.9755 69.4741 30.23 69.5323 30.55C69.5905 30.8555 69.5905 31.1827 69.5323 31.5318C69.4741 31.8809 69.4014 32.2009 69.3141 32.4918L68.8777 33.8009C69.3286 33.1027 69.7868 32.4918 70.2523 31.9682C70.7323 31.43 71.2123 30.9791 71.6923 30.6155C72.1723 30.2373 72.6596 29.9537 73.1541 29.7646C73.6486 29.5755 74.1432 29.4809 74.6377 29.4809C75.3068 29.4809 75.8232 29.6482 76.1868 29.9827C76.5505 30.3027 76.7541 30.7827 76.7977 31.4227C76.8414 32.0627 76.7032 32.8555 76.3832 33.8009L75.0959 37.5537C74.8341 38.31 74.7105 38.8337 74.725 39.1246C74.7541 39.4009 74.9432 39.5391 75.2923 39.5391C75.4959 39.5391 75.6414 39.6264 75.7286 39.8009C75.8305 39.9609 75.8668 40.15 75.8377 40.3682C75.8232 40.5718 75.7359 40.7537 75.5759 40.9137C75.4159 41.0882 75.1832 41.1755 74.8777 41.1755ZM74.8755 41.1755C74.6719 41.1755 74.5192 41.0882 74.4173 40.9137C74.3155 40.7537 74.2792 40.5718 74.3082 40.3682C74.3228 40.15 74.4101 39.9609 74.5701 39.8009C74.7301 39.6264 74.9628 39.5391 75.2682 39.5391C75.6464 39.5391 76.0464 39.4009 76.4682 39.1246C76.8901 38.8482 77.3264 38.4627 77.7773 37.9682C78.2137 37.4737 78.6646 36.8918 79.1301 36.2227C79.5955 35.5537 80.0682 34.8264 80.5482 34.0409C80.6646 33.8518 80.8246 33.7718 81.0282 33.8009C81.2319 33.83 81.3992 33.9246 81.5301 34.0846C81.661 34.23 81.6682 34.3973 81.5519 34.5864C80.9264 35.6773 80.3301 36.6373 79.7628 37.4664C79.2101 38.2955 78.6719 38.9864 78.1482 39.5391C77.6101 40.0773 77.0792 40.4846 76.5555 40.7609C76.0173 41.0373 75.4573 41.1755 74.8755 41.1755ZM82.0101 41.1755C81.5155 41.1755 81.0864 41.0446 80.7228 40.7827C80.3592 40.5209 80.0755 40.15 79.8719 39.67C79.6682 39.19 79.5664 38.6227 79.5664 37.9682C79.5664 37.2991 79.6682 36.5791 79.8719 35.8082C80.0755 35.0373 80.381 34.2809 80.7882 33.5391C81.1955 32.7973 81.6901 32.1209 82.2719 31.51C82.8537 30.8991 83.5228 30.4118 84.2792 30.0482C85.0501 29.67 85.8937 29.4809 86.8101 29.4809C87.3628 29.4809 87.9592 29.5827 88.5992 29.7864C89.2392 29.9755 89.8137 30.2446 90.3228 30.5937L89.9301 32.0991C89.2173 31.7209 88.5846 31.4809 88.0319 31.3791C87.4792 31.2627 86.9701 31.2046 86.5046 31.2046C85.8792 31.2046 85.3046 31.35 84.781 31.6409C84.2719 31.9318 83.8137 32.3173 83.4064 32.7973C83.0137 33.2627 82.6792 33.7864 82.4028 34.3682C82.1264 34.9355 81.9155 35.5027 81.7701 36.07C81.6246 36.6373 81.5519 37.1537 81.5519 37.6191C81.5519 37.9827 81.5955 38.3027 81.6828 38.5791C81.7701 38.8555 81.8937 39.0664 82.0537 39.2118C82.2282 39.3573 82.4246 39.43 82.6428 39.43C83.181 39.43 83.7919 39.1391 84.4755 38.5573C85.1592 37.9609 85.8864 37.0882 86.6573 35.9391C87.4428 34.79 88.2428 33.3937 89.0573 31.75L89.8646 32.5573C88.9192 34.5064 87.981 36.1209 87.0501 37.4009C86.1337 38.6664 85.2537 39.6118 84.4101 40.2373C83.5664 40.8627 82.7664 41.1755 82.0101 41.1755ZM88.7301 41.1755C88.0755 41.1755 87.5882 41.0518 87.2682 40.8046C86.9628 40.5718 86.7664 40.2737 86.6792 39.91C86.6064 39.5318 86.6064 39.1391 86.6792 38.7318C86.7519 38.31 86.8537 37.9246 86.9846 37.5755L89.4282 30.2664C89.5301 29.9755 89.6464 29.7864 89.7773 29.6991C89.9228 29.6118 90.1337 29.5682 90.4101 29.5682C90.861 29.5682 91.1446 29.6409 91.261 29.7864C91.3919 29.9173 91.4064 30.1282 91.3046 30.4191L88.9046 37.5537C88.6573 38.31 88.541 38.8337 88.5555 39.1246C88.5846 39.4009 88.7664 39.5391 89.101 39.5391C89.3046 39.5391 89.4573 39.6264 89.5592 39.8009C89.661 39.9609 89.6973 40.15 89.6682 40.3682C89.6537 40.5718 89.5664 40.7537 89.4064 40.9137C89.261 41.0882 89.0355 41.1755 88.7301 41.1755ZM88.725 41.1755C88.4486 41.1755 88.2668 41.0882 88.1795 40.9137C88.0922 40.7537 88.0777 40.5718 88.1359 40.3682C88.1795 40.15 88.2959 39.9609 88.485 39.8009C88.6595 39.6264 88.885 39.5391 89.1613 39.5391C89.5686 39.5391 90.085 39.3646 90.7104 39.0155C91.3359 38.6664 92.0268 38.1864 92.7831 37.5755C93.5395 36.95 94.325 36.23 95.1395 35.4155C95.9686 34.6009 96.7831 33.7209 97.5831 32.7755C98.3977 31.8155 99.1613 30.8337 99.874 29.83C100.601 28.8264 101.241 27.83 101.794 26.8409C102.347 25.8518 102.783 24.9064 103.103 24.0046C103.423 23.0882 103.583 22.2591 103.583 21.5173C103.583 21.2409 103.67 21.0373 103.845 20.9064C104.034 20.7609 104.252 20.6882 104.499 20.6882C104.747 20.6882 104.958 20.7609 105.132 20.9064C105.321 21.0373 105.416 21.2409 105.416 21.5173C105.416 22.2155 105.27 22.9937 104.979 23.8518C104.703 24.6955 104.31 25.59 103.801 26.5355C103.307 27.4809 102.725 28.4409 102.056 29.4155C101.387 30.3755 100.659 31.3355 99.874 32.2955C99.1031 33.2555 98.3031 34.1718 97.474 35.0446C96.645 35.9173 95.8159 36.7318 94.9868 37.4882C94.1577 38.23 93.3577 38.8773 92.5868 39.43C91.8159 39.9827 91.1031 40.4118 90.4486 40.7173C89.794 41.0227 89.2195 41.1755 88.725 41.1755ZM97.2995 41.1755C96.485 41.1755 95.8377 40.9282 95.3577 40.4337C94.8922 39.9246 94.6304 39.2191 94.5722 38.3173C94.514 37.4009 94.6813 36.3318 95.074 35.11L98.914 23.4373C99.4522 21.7355 100.049 20.4991 100.703 19.7282C101.372 18.9573 102.172 18.5718 103.103 18.5718C103.569 18.5718 103.969 18.6955 104.303 18.9427C104.652 19.19 104.921 19.5318 105.11 19.9682C105.314 20.4046 105.416 20.9209 105.416 21.5173C105.416 21.7937 105.321 21.9973 105.132 22.1282C104.958 22.2591 104.747 22.3246 104.499 22.3246C104.252 22.3246 104.034 22.2591 103.845 22.1282C103.67 21.9973 103.583 21.7937 103.583 21.5173C103.583 21.27 103.561 21.0591 103.518 20.8846C103.474 20.71 103.401 20.5718 103.299 20.47C103.198 20.3682 103.045 20.3173 102.841 20.3173C102.609 20.3173 102.383 20.4191 102.165 20.6227C101.961 20.8118 101.743 21.1682 101.51 21.6918C101.278 22.2009 100.994 22.9282 100.659 23.8737L96.8631 35.4809C96.5722 36.3682 96.4122 37.1173 96.3831 37.7282C96.3686 38.3391 96.4777 38.7973 96.7104 39.1027C96.9431 39.3937 97.2777 39.5391 97.714 39.5391C97.9177 39.5391 98.0704 39.6264 98.1722 39.8009C98.274 39.9609 98.3104 40.15 98.2813 40.3682C98.2522 40.5718 98.1577 40.7537 97.9977 40.9137C97.8377 41.0882 97.605 41.1755 97.2995 41.1755ZM97.3334 41.1755C97.1007 41.1755 96.9552 41.0882 96.8971 40.9137C96.8389 40.7537 96.8461 40.5718 96.9189 40.3682C96.9771 40.15 97.0789 39.9609 97.2243 39.8009C97.3698 39.6264 97.5298 39.5391 97.7043 39.5391C97.9661 39.5391 98.2571 39.4373 98.5771 39.2337C98.8825 39.0155 99.2098 38.7027 99.5589 38.2955C99.908 37.8737 100.279 37.3718 100.672 36.79C101.064 36.1937 101.479 35.5246 101.915 34.7827C102.599 33.6337 103.239 32.71 103.835 32.0118C104.432 31.3137 104.999 30.7827 105.537 30.4191C106.075 30.0555 106.584 29.8082 107.064 29.6773C107.559 29.5464 108.032 29.4809 108.483 29.4809C108.686 29.4809 108.832 29.5682 108.919 29.7427C109.006 29.9173 109.043 30.1209 109.028 30.3537C109.028 30.5718 108.977 30.7682 108.875 30.9427C108.773 31.1173 108.628 31.2046 108.439 31.2046C108.206 31.2046 107.915 31.2482 107.566 31.3355C107.232 31.4082 106.846 31.5755 106.41 31.8373C105.988 32.0846 105.53 32.47 105.035 32.9937C104.555 33.5173 104.053 34.23 103.53 35.1318C102.773 36.4264 102.097 37.4737 101.501 38.2737C100.919 39.0591 100.388 39.6627 99.908 40.0846C99.428 40.5064 98.9843 40.79 98.5771 40.9355C98.1552 41.0955 97.7407 41.1755 97.3334 41.1755ZM100.672 52.1282C100.163 52.1282 99.7261 52.0118 99.3625 51.7791C98.9843 51.5464 98.7007 51.2264 98.5116 50.8191C98.308 50.4264 98.2061 49.9682 98.2061 49.4446C98.2061 49.0955 98.308 48.8264 98.5116 48.6373C98.7007 48.4627 98.9261 48.3682 99.188 48.3537C99.4352 48.3391 99.6607 48.4046 99.8643 48.55C100.053 48.6955 100.148 48.9282 100.148 49.2482C100.148 49.5537 100.221 49.7937 100.366 49.9682C100.512 50.1427 100.715 50.23 100.977 50.23C101.413 50.23 101.835 50.0846 102.243 49.7937C102.664 49.5027 103.057 49.0955 103.421 48.5718C103.784 48.0627 104.119 47.4737 104.424 46.8046C104.73 46.1355 104.992 45.4227 105.21 44.6664C105.428 43.91 105.588 43.1391 105.69 42.3537C105.821 41.6846 105.901 41.1173 105.93 40.6518C105.959 40.1864 105.944 39.8082 105.886 39.5173C105.828 39.2118 105.726 38.9791 105.581 38.8191C105.45 38.6446 105.275 38.5282 105.057 38.47C104.839 38.3973 104.592 38.3609 104.315 38.3609C104.141 38.3609 103.966 38.3755 103.792 38.4046C103.617 38.4191 103.464 38.4337 103.333 38.4482C103.173 38.4627 103.035 38.4191 102.919 38.3173C102.817 38.2155 102.759 38.0846 102.744 37.9246C102.73 37.75 102.781 37.5755 102.897 37.4009C103.013 37.2264 103.224 37.0809 103.53 36.9646C103.908 36.8046 104.381 36.5791 104.948 36.2882C105.515 35.9827 106.075 35.6264 106.628 35.2191C107.195 34.8118 107.668 34.3609 108.046 33.8664C108.424 33.3718 108.613 32.8482 108.613 32.2955C108.613 31.9173 108.519 31.6409 108.33 31.4664C108.155 31.2918 107.886 31.2046 107.523 31.2046C107.261 31.2046 107.072 31.1173 106.955 30.9427C106.839 30.7682 106.781 30.5718 106.781 30.3537C106.795 30.1209 106.861 29.9173 106.977 29.7427C107.108 29.5682 107.29 29.4809 107.523 29.4809C108.119 29.4809 108.613 29.5609 109.006 29.7209C109.399 29.8664 109.712 30.0773 109.944 30.3537C110.177 30.6155 110.337 30.9137 110.424 31.2482C110.526 31.5827 110.577 31.9318 110.577 32.2955C110.577 32.8337 110.461 33.35 110.228 33.8446C110.01 34.3391 109.697 34.8046 109.29 35.2409C108.897 35.6627 108.432 36.0482 107.893 36.3973C107.355 36.7318 106.773 37.0155 106.148 37.2482V37.2918C106.526 37.3646 106.839 37.5173 107.086 37.75C107.333 37.9682 107.515 38.2809 107.632 38.6882C107.763 39.0809 107.821 39.5682 107.806 40.15C107.806 40.7173 107.748 41.4009 107.632 42.2009C107.501 43.0009 107.304 43.8518 107.043 44.7537C106.795 45.6555 106.475 46.5427 106.083 47.4155C105.704 48.2882 105.253 49.0809 104.73 49.7937C104.206 50.5064 103.603 51.0737 102.919 51.4955C102.25 51.9173 101.501 52.1282 100.672 52.1282ZM100.145 49.2482C100.145 49.4664 100.05 49.6409 99.8609 49.7718C99.6573 49.9027 99.4318 49.9827 99.1846 50.0118C98.9227 50.0409 98.6973 50.0046 98.5082 49.9027C98.3046 49.8155 98.2027 49.6627 98.2027 49.4446C98.2027 48.9791 98.2682 48.4991 98.3991 48.0046C98.53 47.51 98.7336 47.0009 99.01 46.4773C99.2864 45.9537 99.65 45.4155 100.101 44.8627C100.552 44.3246 101.097 43.7718 101.737 43.2046C102.363 42.6373 103.097 42.0627 103.941 41.4809C104.77 40.8991 105.715 40.31 106.777 39.7137C107.49 39.3209 108.152 38.9573 108.763 38.6227C109.374 38.2737 109.985 37.9246 110.595 37.5755C111.192 37.2264 111.817 36.8555 112.472 36.4627C112.69 36.3318 112.865 36.31 112.995 36.3973C113.141 36.4846 113.235 36.6227 113.279 36.8118C113.337 37.0009 113.345 37.1973 113.301 37.4009C113.257 37.6046 113.163 37.75 113.017 37.8373C112.261 38.3027 111.563 38.7173 110.923 39.0809C110.283 39.43 109.679 39.7646 109.112 40.0846C108.53 40.4046 107.948 40.7318 107.366 41.0664C106.465 41.6046 105.657 42.1282 104.945 42.6373C104.217 43.1464 103.592 43.6409 103.068 44.1209C102.53 44.6155 102.079 45.0882 101.715 45.5391C101.337 46.0046 101.032 46.4482 100.799 46.87C100.566 47.3064 100.399 47.7209 100.297 48.1137C100.195 48.5209 100.145 48.8991 100.145 49.2482ZM116.203 41.1755C115.665 41.1755 115.177 41.0882 114.741 40.9137C114.305 40.7537 113.919 40.5282 113.585 40.2373C113.265 39.9464 112.995 39.6046 112.777 39.2118C112.574 38.8046 112.414 38.3682 112.297 37.9027C112.195 37.4373 112.145 36.9573 112.145 36.4627C112.145 35.7209 112.246 34.9427 112.45 34.1282C112.654 33.3137 112.959 32.5573 113.366 31.8591C113.788 31.1609 114.326 30.5937 114.981 30.1573C115.635 29.7064 116.414 29.4809 117.315 29.4809C117.781 29.4809 118.188 29.5827 118.537 29.7864C118.901 29.9755 119.185 30.2373 119.388 30.5718C119.592 30.9064 119.694 31.2918 119.694 31.7282C119.694 32.3682 119.475 32.9937 119.039 33.6046C118.617 34.2009 118.065 34.7755 117.381 35.3282C116.712 35.8809 115.992 36.39 115.221 36.8555C114.465 37.3209 113.752 37.7282 113.083 38.0773L112.515 36.6373C112.981 36.3755 113.505 36.0627 114.086 35.6991C114.683 35.3355 115.257 34.9427 115.81 34.5209C116.363 34.0991 116.821 33.6773 117.185 33.2555C117.548 32.8337 117.73 32.4409 117.73 32.0773C117.73 31.8591 117.665 31.6627 117.534 31.4882C117.417 31.3137 117.206 31.2264 116.901 31.2264C116.435 31.2264 116.028 31.4009 115.679 31.75C115.33 32.0991 115.032 32.5427 114.785 33.0809C114.552 33.6046 114.37 34.1573 114.239 34.7391C114.123 35.3064 114.065 35.8155 114.065 36.2664C114.065 36.7027 114.108 37.11 114.195 37.4882C114.283 37.8664 114.421 38.2009 114.61 38.4918C114.814 38.7827 115.083 39.0155 115.417 39.19C115.752 39.35 116.159 39.43 116.639 39.43C117.061 39.43 117.475 39.3355 117.883 39.1464C118.305 38.9427 118.712 38.6809 119.105 38.3609C119.512 38.0264 119.89 37.67 120.239 37.2918C120.414 37.0882 120.617 37.0155 120.85 37.0737C121.083 37.1318 121.272 37.2409 121.417 37.4009C121.563 37.5609 121.643 37.7282 121.657 37.9027C121.686 38.0773 121.614 38.2737 121.439 38.4918C120.886 39.19 120.319 39.7355 119.737 40.1282C119.155 40.5064 118.566 40.7755 117.97 40.9355C117.388 41.0955 116.799 41.1755 116.203 41.1755Z" fill="#30449E"/>
<path d="M35.8538 17.9661C35.8538 17.9661 35.2357 17.9959 31.8871 17.7495C30.0513 17.5233 28.3913 16.8268 27.124 15.7509L26.5271 16.4731C27.3306 17.3173 28.414 17.9377 29.6602 18.2673C28.353 18.4351 27.0543 18.693 25.7774 19.0383C25.5569 19.1046 25.3427 19.1883 25.1376 19.2884C25.174 19.4351 25.1867 19.5871 25.1754 19.7404C25.2039 19.8512 25.1615 19.9909 25.1436 20.1243C26.5447 19.6925 28.0069 19.4887 29.4483 19.5242C31.3653 19.7382 33.2513 20.0612 35.0939 20.491C35.0939 20.491 35.4975 20.3875 35.7536 19.5057C35.7406 19.4554 35.7889 19.3893 35.7978 19.3226C36.0808 18.2407 35.8538 17.9661 35.8538 17.9661Z" fill="#30449E"/>
<path d="M30.7008 22.6269C30.0009 21.8291 29.0581 21.2112 27.9582 20.8296C26.8583 20.448 25.6363 20.3149 24.4037 20.4423L24.5665 23.7181L24.6066 24.5346C24.6066 24.5346 30.1131 24.2487 31.5758 27.2554C33.0384 30.2621 34.1522 39.4783 34.5901 40.8798C34.92 41.1494 35.1931 41.1975 35.401 41.1441C35.8536 41.0279 36.0623 40.4697 36.0623 40.4697C36.0623 40.4697 35.1575 36.9441 34.5483 34.2659C33.9392 31.5877 33.4787 25.4249 30.7008 22.6269Z" fill="#30449E"/>
<path d="M34.7504 20.3208C34.3451 19.3511 33.9753 19.2312 33.9753 19.2312C33.9753 19.2312 33.4244 19.5229 30.2665 20.7307C28.4396 21.3226 26.4941 21.4475 24.6872 21.0889C24.654 21.3659 24.6208 21.6428 24.5753 21.9229C25.8175 22.2679 27.1808 22.308 28.5163 22.0388C27.4269 22.737 26.3985 23.5037 25.4411 24.3312C25.2841 24.4833 25.1378 24.6428 25.0031 24.8087C25.2171 25.009 25.3869 25.2412 25.5053 25.4958L25.7067 25.3152C25.6899 25.2882 25.6854 25.2561 25.6939 25.2245C25.7025 25.1929 25.7235 25.1638 25.7535 25.1422L26.2426 24.8127L26.3127 24.7302L26.3282 24.7907C27.1304 24.1376 28.043 23.5914 29.0293 23.1741C30.9077 22.5265 32.8245 21.9843 34.7664 21.5514C34.7664 21.5514 35.1557 21.2904 34.7504 20.3208Z" fill="#455A64"/>
<path d="M28.2221 7.12661L28.2402 7.19713C27.9427 6.55061 27.5262 5.95522 27.0048 5.43126C26.51 4.93561 25.9103 4.52309 25.2315 4.21143C24.4497 3.86306 23.5811 3.65216 22.6732 3.59032C22.3026 3.5529 21.9253 3.54547 21.5464 3.56815C12.6664 3.96824 7.45501 14.7004 5.25571 19.7958C1.23102 29.1068 5.36277 38.2464 13.0446 43.4899C13.238 43.6336 13.4409 43.764 13.6439 43.8945C14.3281 44.3296 15.0516 44.7215 15.8092 45.0673C16.4449 45.3435 17.1102 45.5749 17.799 45.7592C18.1558 45.8621 18.5245 45.9398 18.9016 45.9916C18.5803 46.0096 18.5958 46.0701 18.9404 46.1427C26.9773 46.9789 32.8606 41.3031 32.3843 34.6719C32.1258 31.0234 29.6208 27.5111 27.2311 24.7531C26.7528 24.2101 25.9716 23.4014 25.4909 23.0523C24.8252 22.4394 25.2815 22.2364 25.7321 21.4014C25.9916 20.8428 26.0867 20.2511 26.0085 19.6804C25.9304 19.1097 25.6815 18.5781 25.2847 18.1341C26.1692 17.9111 26.9685 17.453 27.5578 16.8314C28.4659 15.6073 29.0114 14.2372 29.1432 12.8491C29.4325 10.8601 29.1153 8.88949 28.2221 7.12661Z" fill="#30449E"/>
</svg>
