<svg width="27" height="24" viewBox="0 0 27 24" fill="none" xmlns="http://www.w3.org/2000/svg">
<path d="M24.0654 2.59663C23.9658 2.51851 23.8445 2.46657 23.7147 2.44641C23.5849 2.42626 23.4515 2.43865 23.3288 2.48226L2.3929 9.91757C2.13825 10.008 1.9228 10.171 1.77891 10.382C1.63502 10.593 1.57045 10.8407 1.59491 11.0878C1.61936 11.335 1.73151 11.5683 1.91452 11.7527C2.09753 11.937 2.34152 12.0626 2.60984 12.1104L8.20075 13.1069V18.7498C8.20087 19.0114 8.28712 19.267 8.44845 19.4838C8.60977 19.7006 8.8388 19.8687 9.10615 19.9665C9.3735 20.0643 9.66696 20.0874 9.94888 20.0328C10.2308 19.9782 10.4883 19.8484 10.6884 19.6601L13.4404 17.0698L17.7359 20.4869C17.9981 20.6975 18.3361 20.8139 18.6863 20.8141C18.8392 20.8139 18.9912 20.792 19.1367 20.7494C19.3753 20.6809 19.59 20.5568 19.7593 20.3895C19.9286 20.2222 20.0466 20.0176 20.1016 19.796L24.2979 3.2407C24.3274 3.12431 24.3213 3.00282 24.2803 2.88933C24.2394 2.77583 24.1651 2.67463 24.0654 2.59663ZM2.83401 11.0032C2.83006 10.9935 2.83006 10.9829 2.83401 10.9732C2.83867 10.9699 2.84391 10.9674 2.84951 10.9657L19.3485 5.10445L8.67699 12.0419L2.84951 11.0069L2.83401 11.0032ZM9.79579 18.8782C9.76732 18.905 9.73069 18.9235 9.69058 18.9314C9.65048 18.9392 9.6087 18.9361 9.57058 18.9223C9.53246 18.9085 9.49972 18.8847 9.47654 18.854C9.45336 18.8233 9.44079 18.787 9.44042 18.7498V13.8851L12.5076 16.3226L9.79579 18.8782ZM18.8939 19.5419C18.8863 19.5736 18.8694 19.6029 18.8451 19.6267C18.8207 19.6504 18.7898 19.6678 18.7555 19.6769C18.7205 19.6881 18.6829 19.6905 18.6465 19.6839C18.6102 19.6773 18.5765 19.6619 18.5489 19.6394L9.81645 12.6879L22.7669 4.26538L18.8939 19.5419Z" fill="#606770" fill-opacity="0.8"/>
</svg>
